<?xml version="1.0" encoding="utf-8"?>
<!-- Generator: Adobe Illustrator 20.0.0, SVG Export Plug-In . SVG Version: 6.00 Build 0)  -->
<svg version="1.1" id="Capa_1" xmlns="http://www.w3.org/2000/svg" xmlns:xlink="http://www.w3.org/1999/xlink" x="0px" y="0px"
	 viewBox="0 0 512 512" style="enable-background:new 0 0 512 512;" xml:space="preserve">
<style type="text/css">
	.st0{fill:#00C2F0;}
</style>
<g>
	<path class="st0" d="M468.7,218c2.2,12.3,3.3,25.1,3.3,38c0,119.3-96.7,216-216,216S40,375.3,40,256S136.7,40,256,40
		c36.2,0,70.2,8.9,100.2,24.6l26.7-31C345.5,12.2,302.2,0,256,0C114.6,0,0,114.6,0,256s114.6,256,256,256s256-114.6,256-256
		c0-25.8-3.8-50.7-10.9-74.1L468.7,218z"/>
</g>
<polygon class="st0" points="464.1,46.6 281.5,258.3 253.6,290.7 223.2,260.6 176,214.1 142.3,247.9 252.6,353.6 498.2,80.4 "/>
</svg>
